<svg xmlns="http://www.w3.org/2000/svg" id="body_1" width="304" height="54"><g fill="#FFF"><path d="M2830 883c0-10 4-24 9-32 6-10 1-36-15-79-28-74-27-72-14-72 6 0 20 21 31 48l21 47 18-45c9-24 23-46 30-48 15-5 16-10-33 116-30 79-47 102-47 65zm222-58c-1-59 3-79 19-100 41-51 109-22 109 47 0 46-27 71-72 66-31-3-33-1-36 30-6 61-20 32-20-43zm96-17c17-17 15-63-3-78-21-17-47-9-64 22-14 24-14 28 3 47 21 24 46 27 64 9zm923 76c-16-18-6-33 11-16 25 25 78 8 78-24 0-9-11-11-33-7-29 4-37 1-56-23-36-46-6-114 49-114 39 0 58 27 65 96 7 56 5 63-16 83-27 25-78 27-98 5zm77-76c7-7 12-24 12-38 0-52-48-68-76-25-15 23-15 27 0 50 18 27 45 32 64 13zm192 43c0-51-14-76-23-41-6 24-51 36-83 21-67-30-39-131 37-131 27 0 62 38 56 61-3 10-1 17 4 13 5-3 9-11 9-18 0-23 40-56 69-56 34 0 71 37 71 71 0 39-42 73-82 66-33-5-34-5-30 29 3 26 1 34-12 34s-16-11-16-49zm-48-48c23-21 23-45-1-67-42-38-94 22-56 64 22 24 33 25 57 3zm150 0c30-36-12-101-49-77-32 20-38 40-20 68 20 30 47 34 69 9zM633 821l-42-20 14-35c9-20 15-66 15-106 0-39 4-80 10-90 11-21 5-24-70-35-25-4-53-9-62-11-12-4-23 6-37 34-36 70-93 109-218 148-112 36-139 53-172 112-16 29-22 6-15-57l7-61h40c28 0 53-8 79-26 21-15 62-34 90-44 51-16 52-18 80-86 15-38 28-79 28-92s7-37 16-54c10-20 14-44 10-67-18-122-18-122-52-96-10 8-26 15-35 15-22 0-55 116-38 136 17 21 3 44-26 44-25 0-26 0-20-67 11-120 13-129 50-158 36-27 108-59 157-69 24-5 27-11 30-53 4-55 23-72 65-57 39 13 45 75 11 111-19 20-20 25-8 33 8 5 17 10 20 10s11 13 17 30c6 16 19 33 28 36 24 9 65-33 65-68 0-21 5-28 19-28 11 0 22 4 26 9 5 9-44 109-67 139-14 16-48 15-72-3-30-23-35-19-42 35-4 28-11 53-15 56-17 10-9 22 24 33 61 23 159 76 164 89 3 7-7 59-22 115-15 57-25 114-23 127 2 15 16 33 35 45 62 39 9 59-64 26zm566 0c-18-15-23-28-23-69 0-68 21-92 81-92 23 0 43 5 43 10 0 6-18 10-39 10-22 0-43 5-46 10-4 6 6 10 23 10 43 0 73 28 74 69 2 61-64 92-113 52zm83-26c8-19 8-31 0-50-13-29-38-32-64-8-22 20-23 46-2 67 23 24 53 20 66-9zm68 25c-28-28-27-84 2-104 31-22 62-20 93 7 41 34 26 55-43 59-53 3-55 4-38 21 10 9 31 17 47 17s29 5 29 10c0 19-69 11-90-10zm85-69c3-6-4-15-16-22-23-12-69 1-69 21 0 13 77 13 85 1z" transform="translate(-3) scale(.06)"/><path d="M1473 783c1-32 6-64 11-71 9-14 76-16 76-2 0 6-13 10-30 10-28 0-29 1-32 57-2 35-8 58-16 61-10 3-12-10-9-55zm118 31c-12-15-21-37-21-49 0-29 40-65 72-65 36 0 56 28 60 84l3 50-47 3c-40 3-49 0-67-23zm77-6c17-17 15-63-3-78-21-17-47-9-64 22-14 24-14 28 3 47 21 24 46 27 64 9zm68 13c-10-11-20-38-23-62-5-36-3-44 18-60 30-23 67-24 97-1 20 16 23 25 20 77l-3 59-46 3c-35 2-50-1-63-16zm74-20c5-11 10-38 10-60v-41h-80v41c0 50 15 79 40 79 11 0 24-9 30-19zm120 30c0-16 51-121 59-121 7 0 61 112 61 126 0 2-5 4-10 4-6 0-17-18-26-40s-19-40-24-40c-4 0-15 18-25 40-16 36-35 53-35 31zm151-17c-12-15-21-34-21-44s9-29 21-44c27-34 68-34 99-1l23 25 11-23c12-23 47-33 74-21 13 6 8 9-18 13-35 6-35 6-38 64-2 31-7 57-11 57-13 0-19-23-15-56 2-16 1-23-2-16s-26 12-60 12c-30 0-54 4-54 8 0 17 25 32 52 32 15 0 28 5 28 10 0 6-15 10-34 10-25 0-40-7-55-26zm87-66c-8-22-37-34-55-22-33 21-26 34 17 34 28 0 40-4 38-12zm144 26c2-47 7-69 17-72s12 2 7 22c-8 32-2 33 36 1 16-14 34-25 39-25 18 0 9 18-21 44l-31 25 33 30c18 16 30 33 25 37-4 4-20-5-36-20-30-28-54-28-49 1 2 9-3 18-10 20-10 4-12-11-10-63zm138 46c-28-28-27-84 2-104 31-22 64-20 88 4 41 41 12 120-45 120-14 0-34-9-45-20zm74-16c9-8 16-24 16-34 0-20-25-50-42-50s-48 31-48 48c0 19 29 52 46 52 7 0 20-7 28-16zm408-30c2-47 7-69 17-72s12 2 7 22c-5 19-3 26 9 26 8 0 15-4 15-10 0-14 49-44 58-35 4 4-8 20-26 35l-34 28 39 36c27 25 33 36 21 36-9 0-28-12-42-26-24-27-49-25-44 3 2 9-3 18-10 20-10 4-12-11-10-63zm282 41c-19-19-23-31-18-52 8-35 39-63 70-63 29 0 64 33 64 60 0 17-7 20-49 20-28 0-52 4-56 9-7 13 27 31 59 31 14 0 26 5 26 10 0 21-71 10-96-15zm91-64c3-6-4-15-16-22-24-13-75 4-64 21 8 13 72 13 80 1zm43 82c-2-5-3-35-3-67v-59l46-4c55-5 69 8 84 76l11 46 26-57c15-32 29-58 32-58 7 0 56 104 56 118 0 21-18 13-23-10-4-13-13-32-20-42-14-19-16-18-36 22-12 23-25 42-30 42-28 0-41-15-41-47 0-44-16-73-40-73-25 0-40 29-40 79 0 36-13 55-22 34zm277-23c9-18 13-40 9-55-9-36 11-55 58-55h39l-3 67c-2 42-8 68-15 71-9 2-13-7-13-28 0-25-4-31-17-28-10 2-24 16-31 31s-20 27-28 27c-13 0-12-4 1-30zm75-71c0-15-5-20-22-17-34 5-37 38-4 38 20 0 26-5 26-21zm58 90c-23-13-25-113-4-135 16-16 76-19 76-4 0 6 7 10 15 10 12 0 15 14 15 68v68l-42 1c-24 1-51-2-60-8zm60-21c6-7 12-33 13-58l4-45-36-3c-32-3-37 0-43 23-11 42 11 95 39 95 7 0 17-6 23-12zm132 22c0-5 14-10 30-10 32 0 43-26 15-36-8-4-15-10-15-15s7-9 15-9 15-9 15-20c0-16-7-20-30-20-16 0-30-4-30-10 0-13 46-13 70 0 14 7 18 21 18 57 0 27-5 54-11 61-11 14-77 16-77 2zm561-16c-12-15-21-34-21-44 0-30 39-70 69-70 37 0 61 28 61 72 0 66-69 93-109 42zm77-6c7-7 12-24 12-38 0-52-48-68-76-25-15 23-15 27 0 50 18 27 45 32 64 13zm48-3c-4-19-4-51 0-71 6-34 8-35 48-32l41 3 9 59c10 67 4 76-55 76-34 0-37-3-43-35zm84-5c0-16-7-20-30-20s-30 4-30 20 7 20 30 20 30-4 30-20zm-15-60c0-22-39-19-43 3-3 15 1 18 20 15 12-2 23-10 23-18zm52 93c-10-18-2-126 11-131 8-2 12 7 12 27 0 26 4 30 31 33 39 4 59 30 43 56-12 18-88 30-97 15zm78-33c0-9-11-16-27-18-23-3-28 1-28 18s5 21 28 18c16-2 27-9 27-18zm56 14c-28-35-26-65 3-93 31-29 73-25 99 11 26 35 15 48-44 48-27 0-49 4-49 8 0 17 25 32 52 32 15 0 28 5 28 10 0 6-15 10-34 10-25 0-40-7-55-26zm87-66c-8-22-37-34-55-22-33 21-26 34 17 34 28 0 40-4 38-12zm-2338 22c0-5 18-10 40-10s40 5 40 10c0 6-18 10-40 10s-40-4-40-10zM1196 445c-8-21-8-408 0-429 5-13 23-16 88-16 93 0 133 17 166 72 34 56 25 113-27 169l-24 26 46 77c48 79 54 109 20 114-16 2-32-17-74-88l-53-90h-87l-3 88c-3 80-5 87-24 90-13 2-24-4-28-13zm189-250c16-15 25-36 25-55 0-51-38-80-105-80h-55v160h55c46 0 60-4 80-25zm260 257c-73-24-105-86-105-202 0-93 7-114 36-108 17 3 20 16 24 107 5 97 6 104 33 127 36 31 78 31 114 0 27-23 28-30 33-127 4-91 7-104 24-107 10-2 22 2 27 10 10 15 12 268 3 292-7 18-35 21-50 6-8-8-19-8-38 0-30 11-70 12-101 2zm241-7c-8-21-8-268 0-289 7-18 35-21 50-6 8 8 19 8 38 0 72-27 152 4 185 73 16 34 21 62 21 128 0 92-7 113-36 107-17-3-20-16-24-107-5-97-6-104-33-127-36-31-78-31-114 0-27 23-28 30-33 128-5 96-7 103-26 106-13 2-24-4-28-13zm399 0c-46-25-66-47-63-69 4-25 38-34 52-14 15 20 51 38 76 38 33 0 70-44 70-83 0-41-23-64-76-78-105-29-135-141-56-210 31-28 40-31 81-26 34 4 52 13 73 36 30 33 28 61-3 61-11 0-27-9-36-20-10-11-28-20-40-20-28 0-63 33-63 58 0 24 41 62 66 62 10 0 33 9 51 20 108 65 68 244-58 257-29 2-54-2-74-12zm259 3c-5-7-9-72-10-145-3-145 7-179 44-156 12 7 24 8 33 2 24-15 83-10 117 11 32 20 32 20 65 0 42-26 86-25 128 3 52 35 59 58 57 182-3 98-5 110-22 113-29 6-36-16-36-120 0-87-2-99-22-118-28-25-62-26-88 0-17 17-20 33-20 119 0 103-11 131-45 117-12-4-15-25-15-106 0-94-2-103-25-125-29-30-55-32-86-6-22 17-24 29-29 127-4 91-8 109-22 112-9 2-20-3-24-10zm576-7c-104-55-116-198-22-269 46-35 135-39 178-6 56 41 69 69 73 160 4 102-3 134-28 134-10 0-21-7-24-15-5-13-10-13-41 0-48 20-94 19-136-4zm119-55c91-47 50-186-55-186-35 0-94 59-94 94 0 37 18 70 48 89 33 20 65 21 101 3zm167 59c-8-21-8-268 0-289 8-20 40-21 52-1 7 14 11 14 38 0 59-30 156-11 141 29-5 12-19 16-52 16-51 0-99 20-110 47-5 10-11 61-14 113-6 87-8 95-27 98-13 2-24-4-28-13zm355-1c-35-25-51-75-51-161 0-67-3-80-20-91-26-16-25-41 2-51 19-7 22-14 20-62-3-61 7-83 34-77 16 3 19 14 22 71 3 63 4 67 26 67 13 0 29 7 36 15 17 20-3 45-36 45-23 0-24 3-24 78 0 83 16 122 49 122 10 0 24 7 31 15 31 37-43 61-89 29z" transform="translate(-3) scale(.06)"/></g></svg>