<svg class="img-fluid" id="outputsvg" xmlns="http://www.w3.org/2000/svg" style="transform-origin:50% 50%;max-height:373.18px" width="45" height="42" viewBox="0 0 900 840" cursor="move"><g id="lfsTpqoHY7qpxt9lfT7VaD" fill="#FFF"><path id="p19Y78fG2T" d="M730 695l-34-35H514l-18-13-18-13 4-29 3-28 12-4 11-4 4 23 3 23 97 5 98 5 15 23c9 12 20 22 25 22h9l3-22 3-23 28-3 27-3V381l-47-3-48-3 2-10 3-10 59-3 59-3 5 23c3 13 5 79 4 148l-2 124-32 10-33 9v67h-26l-34-35z"/><path id="p1AqjLfw2A" d="M147 713l-7-6V561l-62-3-63-3V25h670l3 268 2 267H311l-73 80c-74 81-79 85-91 73zm97-128l61-65h355V60h-10c-141-2-594 1-597 4-3 2-4 105-4 228v223l57 5 57 5 7 20 7 20-5 42-5 43h8c4 0 35-29 69-65z"/><path id="pUlWzUFzY" d="M170 340v-10h380v20H170v-10z"/><path id="peEQ0upeM" d="M170 280c0-14 14-15 200-12l180 3v19H360l-190-1v-9z"/><path id="p1HO4QhUjJ" d="M170 210v-10h380v20H170v-10z"/></g></svg>