<svg class="img-fluid" id="outputsvg" xmlns="http://www.w3.org/2000/svg" style="transform-origin:50% 50%;max-height:373.18px;transition:transform 200ms ease-in-out 0s" width="70" height="70" viewBox="0 0 1400 1300" transform="scale(.6591)" cursor="move"><g id="l7YZSqO1x6pak3O4F9yk9rj" fill="#DD302E"><path id="p1XEiGDjI" d="M868 1173c-20-3-28-10-28-25 0-18 4-20 38-14 20 3 45 6 55 6s17 8 17 20c0 21-15 23-82 13z"/><path id="pnja0sm6j" d="M1020 1163c0-18 9-21 78-27 42-4 93-11 112-15 85-21 90-22 90-8 0 17-126 53-217 63-59 6-63 5-63-13z"/><path id="poI7YG0No" d="M898 1063c-20-5-24-29-7-35 6-2 26-2 45 0 25 3 34 9 34 23 0 19-28 24-72 12z"/><path id="puR5fDeHr" d="M1110 1050c0-17 7-20 50-20 36 0 50 4 50 14 0 17-22 26-66 26-27 0-34-4-34-20z"/><path id="p16im2il61" d="M1270 1026c0-8 11-17 25-20 43-11 19-23-35-18-41 4-50 2-50-12s8-18 74-31c33-7 66 13 66 39 0 44-10 56-46 56-22 0-34-5-34-14z"/><path id="pH30ENtCe" d="M963 983c-15-3-23-12-23-25 0-18 4-20 31-14 17 3 40 6 50 6 12 0 19 7 19 20 0 20-21 24-77 13z"/><path id="p1AeAN0TO0" d="M1015 860c-11-5-32-11-47-14-19-5-28-13-28-26 0-16 7-20 35-20 19 0 35 4 35 9s9 13 20 16 20 15 20 26c0 21-5 22-35 9z"/><path id="pYvzIJzwy" d="M773 763c-7-2-13-16-13-29v-24l35 22c19 13 35 26 35 31 0 8-38 8-57 0z"/><path id="p5vJxzmYI" d="M887 723c-5-7-22-13-38-13-17 0-32-6-36-15-7-20-3-24 33-30 39-7 56 6 52 41-2 19-6 25-11 17z"/><path id="p139Xj4uFG" d="M777 654c-16-16-6-34 19-34 19 0 25 5 22 17-3 19-29 29-41 17z"/></g><g id="l7FBcRWQdYBv3NK1p2GDzRx" fill="#DF0809"><path id="ptrX3jVnI" d="M920 1172c0-4-15-6-33-4-47 5-141-31-195-75C496 935 62 566 48 546c-34-48-25-69 84-182 117-122 191-184 219-184 30 0 56 34 64 81 14 83 66 163 138 211l40 28 38-35c69-62 115-46 175 62 92 167 188 282 259 314 22 10 82 25 133 35 118 21 144 46 162 154 15 88 10 94-67 94-39 1-62 6-70 16-7 10-27 15-57 14-25 0-46 3-46 9 0 5-15 6-35 3-22-4-35-3-35 4 0 6-26 10-65 10-36 0-65-4-65-8zm295-52c22-5 57-15 78-21 26-7 37-15 37-29 0-29-13-31-84-16-36 7-66 10-66 5 0-14-38-11-42 3-5 15-191 15-196 0-1-5-12-8-22-5-32 8-120-26-190-73-116-78-562-440-607-492-24-28-53-24-53 7 0 28 69 92 400 366 345 286 329 278 555 271 83-3 168-10 190-16zm39-103c33-7 61-18 64-26 3-10-1-12-17-8-11 3-21 1-21-4 0-13-28-11-32 3-5 14-226 17-236 2-4-5-27-9-52-10-107-3-237-80-385-228-110-110-187-219-260-365-43-84-49-92-63-78-13 14-12 22 16 79 32 63 52 143 52 203 0 31 12 43 168 167 288 232 333 260 448 278 69 10 234 4 318-13zm16-67l25-7-25-11c-14-6-63-18-110-27s-100-25-118-36c-18-10-40-19-48-19s-14-6-15-12c0-10-2-10-5-1-4 9-18 8-57-4-112-32-210-111-283-229-25-40-54-76-65-79-34-11-134-111-158-160-13-25-25-64-28-86-7-51-25-66-58-49-14 7-25 20-25 28 0 9 21 56 46 106 144 285 371 513 564 566 92 26 298 37 360 20zM908 750c-43-50-69-67-88-55-5 3-10-1-10-9 0-9 7-16 15-16s15-5 15-11c0-7-9-9-21-6-45 12-70-24-26-38 20-7 20-8-8-12-57-7-62-13-37-33 30-25 21-43-14-30-14 6-39 10-55 10-36 0-36 5-3 55 58 88 117 138 209 177 64 27 69 21 23-32zM285 553c-14-64-47-160-63-181l-17-22-40 40c-38 39-39 41-24 65 15 26 127 125 141 125 5 0 6-12 3-27zm439-49c21-8 20-21-3-34-23-12-66 4-75 26-4 10 4 14 28 14 19 0 41-3 50-6z"/></g></svg>