<svg class="img-fluid" id="outputsvg" xmlns="http://www.w3.org/2000/svg" style="transform: none; transform-origin: 50% 50%; cursor: move; max-height: 373.18px;" width="31" height="50" viewBox="0 0 620 1000"><g id="l4D0BTu1hdHYpK3ihXrpxFT" fill="rgb(199,0,0)" style="transform: none;"><g style="transform: none;"><path id="p15aGgTje3" d="M241 764 c-201 -197 -241 -241 -241 -264 0 -23 40 -67 241 -264 190 -186 247 -236 267 -236 36 0 112 75 112 110 0 21 -37 63 -180 204 -99 97 -180 181 -180 186 0 5 81 89 180 186 143 141 180 183 180 204 0 35 -76 110 -112 110 -20 0 -77 -50 -267 -236z"></path></g></g></svg>