<svg class="img-fluid" id="outputsvg" xmlns="http://www.w3.org/2000/svg" style="transform: none; transform-origin: 50% 50%; cursor: move; max-height: 373.18px;" width="70" height="70" viewBox="0 0 1400 1300"><g id="l2n1E52H6OT66nBuEcHkJWv" fill="rgb(229,4,5)" style="transform: none;"><g><path id="ptG33pOJ3" d="M337 1263 c-12 -12 -8 -188 5 -201 7 -7 29 -12 50 -12 26 0 51 -9 79 -29 22 -16 54 -33 71 -36 39 -9 64 -66 59 -136 -1 -8 -20 -23 -43 -34 -54 -23 -116 -86 -160 -161 -31 -54 -38 -60 -95 -80 -82 -28 -107 -46 -138 -98 -28 -49 -59 -174 -48 -203 14 -41 35 -53 88 -53 l53 0 -6 -45 -5 -45 149 -1 c141 -1 310 -1 593 0 l124 1 -5 45 -5 44 55 3 c46 3 58 7 75 30 18 24 19 32 8 90 -16 84 -55 162 -94 190 -18 13 -61 33 -97 44 -60 20 -67 25 -97 75 -41 68 -122 152 -162 169 -27 11 -31 18 -31 49 0 52 29 103 65 114 17 5 47 22 67 38 23 19 49 29 70 29 56 0 59 7 56 116 l-3 99 -336 3 c-184 1 -338 -1 -342 -5z m643 -98 l0 -65 -301 2 -302 3 -1 63 -2 62 303 0 303 0 0 -65z m-120 -119 c0 -3 -22 -12 -49 -21 -44 -14 -51 -21 -70 -65 -12 -27 -21 -62 -21 -79 0 -24 -4 -31 -19 -31 -11 0 -26 -2 -34 -6 -11 -4 -16 7 -21 43 -3 26 -16 66 -29 87 -18 31 -31 42 -69 53 -27 7 -48 16 -48 18 0 3 81 5 180 5 99 0 180 -2 180 -4z m-108 -256 c51 -14 126 -90 173 -174 43 -77 113 -267 125 -341 5 -27 11 -62 15 -77 l7 -28 -391 0 c-215 0 -391 3 -391 8 1 28 62 277 79 319 61 154 130 245 214 283 47 22 113 25 169 10z m-417 -267 c-14 -33 -65 -216 -65 -234 0 -22 -10 -25 -65 -21 -45 4 -45 4 -45 41 0 56 28 138 58 172 15 16 45 36 67 44 53 19 59 18 50 -2z m765 -8 c55 -28 87 -89 96 -184 l7 -59 -47 -4 c-26 -2 -51 -1 -56 2 -4 3 -15 32 -24 65 -14 54 -42 141 -61 189 -7 16 -5 17 26 11 19 -4 45 -13 59 -20z"></path><path id="p2isUYiZ9" d="M598 564 c-3 -3 -2 -22 3 -42 12 -51 12 -49 -21 -79 -44 -39 -40 -60 15 -69 39 -5 48 -11 67 -47 13 -22 27 -41 33 -41 5 -1 20 18 32 40 20 35 29 42 63 48 54 8 60 29 22 69 -30 31 -31 35 -21 71 15 55 1 66 -55 39 -43 -21 -44 -21 -75 -2 -32 19 -53 24 -63 13z m123 -66 c27 17 29 15 23 -16 -4 -19 -1 -32 10 -41 23 -19 20 -31 -7 -31 -16 0 -28 -9 -36 -27 l-13 -28 -14 28 c-10 18 -23 27 -39 27 -30 0 -32 11 -6 34 12 11 16 25 13 42 -4 24 -3 24 23 12 20 -9 31 -9 46 0z"></path></g></g><g id="l5c9ERQi1J8gzDJONFJsszB" fill="rgb(224,121,118)" style="transform: none;"><g><path id="p18ceZWct4" d="M334 1257 c-3 -8 -3 -54 -2 -103 l3 -89 5 103 c5 101 4 114 -6 89z"></path><path id="pSy0r24Ih" d="M527 1233 c84 -2 222 -2 306 0 83 1 15 3 -153 3 -168 0 -236 -2 -153 -3z"></path><path id="pZVkWQRpR" d="M373 1165 c0 -22 2 -30 4 -17 2 12 2 30 0 40 -3 9 -5 -1 -4 -23z"></path><path id="p1A1e7Ar5O" d="M379 1097 c4 -4 142 -6 307 -5 l299 3 -307 5 c-169 3 -304 2 -299 -3z"></path><path id="p12spRTF3W" d="M390 1053 c25 -3 54 -12 65 -21 20 -17 20 -17 1 6 -15 17 -28 22 -65 20 l-46 -1 45 -4z"></path><path id="pHWDPLkbp" d="M490 1053 c0 -5 84 -7 187 -5 137 2 184 -1 173 -9 -12 -9 -12 -10 -1 -7 8 3 17 10 19 16 3 9 -44 12 -187 12 -105 0 -191 -3 -191 -7z"></path><path id="pt9tki6hP" d="M916 1052 c-2 -4 12 -6 32 -4 56 5 62 10 15 11 -23 1 -44 -3 -47 -7z"></path><path id="pxAuQFg58" d="M642 870 c0 -19 2 -27 5 -17 2 9 2 25 0 35 -3 9 -5 1 -5 -18z"></path><path id="pG4GsBu0x" d="M658 803 c12 -2 32 -2 45 0 12 2 2 4 -23 4 -25 0 -35 -2 -22 -4z"></path><path id="pSpmFaazI" d="M780 467 c0 -2 15 -16 33 -33 l32 -29 -29 33 c-28 30 -36 37 -36 29z"></path><path id="p1BEnL8znC" d="M613 371 c16 -3 35 -17 42 -31 8 -14 14 -20 15 -15 0 25 -32 55 -58 54 l-27 -1 28 -7z"></path><path id="pmGcL2xbt" d="M746 372 c-3 -5 8 -6 25 -4 16 2 29 6 29 8 0 8 -49 4 -54 -4z"></path><path id="pUgHbb1Gl" d="M154 290 c1 -22 6 -25 41 -26 l40 -1 -37 4 c-28 3 -38 9 -41 26 -3 18 -4 18 -3 -3z"></path><path id="p1Gj6KG8EW" d="M1201 298 c-1 -24 -5 -27 -43 -31 l-43 -4 43 -1 c45 -2 58 10 49 45 -3 12 -5 9 -6 -9z"></path><path id="p6hPh9aXt" d="M178 223 c18 -2 45 -2 60 0 15 2 0 4 -33 4 -33 0 -45 -2 -27 -4z"></path><path id="p5es6bzu9" d="M1128 223 c18 -2 45 -2 60 0 15 2 0 4 -33 4 -33 0 -45 -2 -27 -4z"></path><path id="pSYxzGWSr" d="M680 170 l-395 -5 392 -3 c253 -1 394 2 398 8 3 6 5 9 3 8 -2 -2 -181 -5 -398 -8z"></path><path id="p7BfFZ0OJ" d="M553 123 c9 -2 25 -2 35 0 9 3 1 5 -18 5 -19 0 -27 -2 -17 -5z"></path></g></g></svg>