<svg class="img-fluid" id="outputsvg" xmlns="http://www.w3.org/2000/svg" style="transform: none; transform-origin: 50% 50%; cursor: move; max-height: 373.18px;" width="44" height="45" viewBox="0 0 880 900"><g id="l3sCj46CnVZASH0ZiNra1fs" fill="rgb(255,255,255)" style="transform: none;"><g><path id="p10Z0gBEAZ" d="M334 806 c-45 -45 -48 -108 -8 -155 l26 -31 -46 -108 c-25 -59 -63 -150 -84 -202 l-39 -95 -53 -5 c-69 -6 -81 -30 -16 -30 25 0 46 -4 46 -10 0 -5 -11 -35 -25 -66 -27 -60 -31 -84 -15 -84 13 0 27 29 96 195 31 77 81 196 109 265 l52 125 43 7 c25 4 55 18 70 33 l26 25 84 -35 c47 -20 99 -42 116 -50 41 -19 68 -23 73 -10 2 6 -57 35 -130 66 -118 50 -134 59 -131 79 3 33 -27 89 -59 105 -49 26 -97 19 -135 -19z m140 -27 c14 -17 26 -37 26 -44 0 -33 -22 -66 -54 -82 -47 -22 -92 -4 -112 44 -13 29 -12 37 1 63 31 59 97 69 139 19z"></path><path id="p5fg2YeaB" d="M390 745 c-18 -21 -5 -47 22 -43 26 3 37 36 16 49 -18 12 -24 11 -38 -6z"></path><path id="pn5ubB6oc" d="M525 621 c-5 -9 31 -41 48 -41 8 0 199 -79 205 -85 3 -3 -56 -144 -63 -153 -1 -1 -35 11 -76 28 -41 17 -108 45 -149 61 -41 17 -79 34 -83 39 -5 4 -2 21 7 38 9 17 16 38 16 47 0 31 -22 13 -45 -37 -18 -40 -20 -56 -12 -65 7 -7 50 -28 97 -47 47 -19 123 -50 170 -70 47 -19 88 -32 92 -28 12 12 78 176 78 193 0 11 -25 26 -77 47 -43 17 -104 42 -136 56 -66 30 -64 29 -72 17z"></path><path id="pyc5jMVh7" d="M340 400 c-29 -54 -78 -179 -72 -185 15 -15 201 -90 207 -83 2 1 21 47 43 100 31 74 38 99 28 107 -14 12 -174 81 -187 81 -4 0 -13 -9 -19 -20z m114 -50 c36 -16 66 -31 66 -34 0 -9 -53 -131 -61 -140 -6 -7 -134 37 -151 53 -10 9 52 151 67 151 7 0 43 -13 79 -30z"></path></g></g></svg>