<svg class="img-fluid" id="outputsvg" xmlns="http://www.w3.org/2000/svg" style="transform: none; transform-origin: 50% 50%; cursor: move; max-height: 373.18px;" width="70" height="70" viewBox="0 0 1400 1300"><g id="l29lAHNBO15STvYbheMHT4f" fill="rgb(228,0,4)" style="transform: none;"><g><path id="p17qOn0hnH" d="M644 1195 c-27 -20 -96 -63 -153 -98 -121 -73 -246 -185 -279 -251 l-23 -46 -65 0 c-57 0 -65 -2 -62 -17 2 -14 15 -19 61 -21 57 -3 57 -3 50 -30 -14 -47 -6 -137 14 -183 47 -105 136 -163 254 -163 l67 -1 6 -50 c3 -27 6 -78 6 -112 0 -34 3 -68 6 -77 10 -27 33 -18 38 17 3 17 13 82 22 142 l17 110 51 51 51 52 37 -43 c31 -35 41 -58 55 -127 13 -59 22 -83 33 -83 12 0 16 16 18 69 3 65 4 68 25 61 135 -42 292 29 347 157 19 43 22 65 18 130 l-5 77 51 3 c37 2 51 7 51 18 0 11 -14 16 -58 18 -57 3 -57 3 -90 55 -49 76 -164 178 -291 257 -61 38 -126 80 -145 94 -19 14 -40 26 -46 26 -6 0 -34 -16 -61 -35z m179 -80 c193 -125 250 -169 299 -230 26 -32 48 -65 48 -72 0 -10 -24 -13 -99 -13 l-98 0 -54 70 c-51 68 -63 78 -72 63 -3 -5 -10 -111 -18 -237 -7 -126 -15 -221 -19 -210 -4 10 -15 64 -24 119 -16 96 -71 395 -81 443 -3 12 -12 22 -19 22 -9 0 -19 -29 -30 -92 -15 -89 -23 -137 -62 -398 -17 -113 -29 -149 -45 -133 -4 4 -11 76 -15 158 -4 83 -11 160 -15 173 -8 21 -13 22 -144 22 -152 0 -154 1 -107 66 44 60 125 129 226 190 50 31 116 73 146 95 30 21 60 37 65 36 6 -1 59 -34 118 -72z m-93 -400 c16 -93 33 -181 36 -195 5 -25 5 -24 -20 5 -14 17 -26 33 -26 38 0 21 -30 2 -59 -38 -18 -25 -36 -45 -40 -45 -4 0 7 91 25 203 18 111 34 211 34 222 l1 20 9 -20 c5 -11 23 -96 40 -190z m192 95 l34 -45 119 -5 120 -5 3 -75 c5 -129 -46 -211 -155 -245 -57 -18 -152 -16 -176 3 -9 8 -10 61 -3 216 5 114 12 205 16 204 4 -2 23 -23 42 -48z m-425 -212 c7 -119 7 -165 -1 -170 -18 -12 -98 -8 -139 6 -112 40 -169 141 -152 271 l6 55 138 0 138 0 10 -162z m72 -205 c0 -5 -4 -17 -9 -28 -8 -18 -9 -17 -9 8 -1 15 4 27 9 27 6 0 10 -3 9 -7z"></path></g></g></svg>