<?xml version="1.0" standalone="no"?>
<!DOCTYPE svg PUBLIC "-//W3C//DTD SVG 1.0//EN" "http://www.w3.org/TR/2001/REC-SVG-20010904/DTD/svg10.dtd">
<svg xmlns="http://www.w3.org/2000/svg" xmlns:xlink="http://www.w3.org/1999/xlink" id="body_1" width="304" height="54">

<g transform="matrix(0.06 0 0 0.06 -3 -0)">
	<g transform="matrix(1 0 0 1 0 0)">
		<g transform="matrix(1 0 0 1 0 0)">
            <path d="M2830 883C 2830 873 2834 859 2839 851C 2845 841 2840 815 2824 772C 2796 698 2797 700 2810 700C 2816 700 2830 721 2841 748L2841 748L2862 795L2880 750C 2889 726 2903 704 2910 702C 2925 697 2926 692 2877 818C 2847 897 2830 920 2830 883z" stroke="none" fill="#FFFFFF" fill-rule="nonzero" />
            <path d="M3052 825C 3051 766 3055 746 3071 725C 3112 674 3180 703 3180 772C 3180 818 3153 843 3108 838C 3077 835 3075 837 3072 868C 3066 929 3052 900 3052 825zM3148 808C 3165 791 3163 745 3145 730C 3124 713 3098 721 3081 752C 3067 776 3067 780 3084 799C 3105 823 3130 826 3148 808z" stroke="none" fill="#FFFFFF" fill-rule="nonzero" />
            <path d="M4071 884C 4055 866 4065 851 4082 868C 4107 893 4160 876 4160 844C 4160 835 4149 833 4127 837C 4098 841 4090 838 4071 814C 4035 768 4065 700 4120 700C 4159 700 4178 727 4185 796C 4192 852 4190 859 4169 879C 4142 904 4091 906 4071 884zM4148 808C 4155 801 4160 784 4160 770C 4160 718 4112 702 4084 745C 4069 768 4069 772 4084 795C 4102 822 4129 827 4148 808z" stroke="none" fill="#FFFFFF" fill-rule="nonzero" />
            <path d="M4340 851C 4340 800 4326 775 4317 810C 4311 834 4266 846 4234 831C 4167 801 4195 700 4271 700C 4298 700 4333 738 4327 761C 4324 771 4326 778 4331 774C 4336 771 4340 763 4340 756C 4340 733 4380 700 4409 700C 4443 700 4480 737 4480 771C 4480 810 4438 844 4398 837C 4365 832 4364 832 4368 866C 4371 892 4369 900 4356 900C 4343 900 4340 889 4340 851zM4292 803C 4315 782 4315 758 4291 736C 4249 698 4197 758 4235 800C 4257 824 4268 825 4292 803zM4442 803C 4472 767 4430 702 4393 726C 4361 746 4355 766 4373 794C 4393 824 4420 828 4442 803z" stroke="none" fill="#FFFFFF" fill-rule="nonzero" />
            <path d="M633 821L591 801L605 766C 614 746 620 700 620 660C 620 621 624 580 630 570C 641 549 635 546 560 535C 535 531 507 526 498 524C 486 520 475 530 461 558C 425 628 368 667 243 706C 131 742 104 759 71 818C 55 847 49 824 56 761L56 761L63 700L103 700C 131 700 156 692 182 674C 203 659 244 640 272 630C 323 614 324 612 352 544C 367 506 380 465 380 452C 380 439 387 415 396 398C 406 378 410 354 406 331C 388 209 388 209 354 235C 344 243 328 250 319 250C 297 250 264 366 281 386C 298 407 284 430 255 430C 230 430 229 430 235 363C 246 243 248 234 285 205C 321 178 393 146 442 136C 466 131 469 125 472 83C 476 28 495 11 537 26C 576 39 582 101 548 137C 529 157 528 162 540 170C 548 175 557 180 560 180C 563 180 571 193 577 210C 583 226 596 243 605 246C 629 255 670 213 670 178C 670 157 675 150 689 150C 700 150 711 154 715 159C 720 168 671 268 648 298C 634 314 600 313 576 295C 546 272 541 276 534 330C 530 358 523 383 519 386C 502 396 510 408 543 419C 604 442 702 495 707 508C 710 515 700 567 685 623C 670 680 660 737 662 750C 664 765 678 783 697 795C 759 834 706 854 633 821z" stroke="none" fill="#FFFFFF" fill-rule="nonzero" />
            <path d="M1199 821C 1181 806 1176 793 1176 752C 1176 684 1197 660 1257 660C 1280 660 1300 665 1300 670C 1300 676 1282 680 1261 680C 1239 680 1218 685 1215 690C 1211 696 1221 700 1238 700C 1281 700 1311 728 1312 769C 1314 830 1248 861 1199 821zM1282 795C 1290 776 1290 764 1282 745C 1269 716 1244 713 1218 737C 1196 757 1195 783 1216 804C 1239 828 1269 824 1282 795z" stroke="none" fill="#FFFFFF" fill-rule="nonzero" />
            <path d="M1350 820C 1322 792 1323 736 1352 716C 1383 694 1414 696 1445 723C 1486 757 1471 778 1402 782C 1349 785 1347 786 1364 803C 1374 812 1395 820 1411 820C 1427 820 1440 825 1440 830C 1440 849 1371 841 1350 820zM1435 751C 1438 745 1431 736 1419 729C 1396 717 1350 730 1350 750C 1350 763 1427 763 1435 751z" stroke="none" fill="#FFFFFF" fill-rule="nonzero" />
            <path d="M1473 783C 1474 751 1479 719 1484 712C 1493 698 1560 696 1560 710C 1560 716 1547 720 1530 720C 1502 720 1501 721 1498 777C 1496 812 1490 835 1482 838C 1472 841 1470 828 1473 783z" stroke="none" fill="#FFFFFF" fill-rule="nonzero" />
            <path d="M1591 814C 1579 799 1570 777 1570 765C 1570 736 1610 700 1642 700C 1678 700 1698 728 1702 784L1702 784L1705 834L1658 837C 1618 840 1609 837 1591 814zM1668 808C 1685 791 1683 745 1665 730C 1644 713 1618 721 1601 752C 1587 776 1587 780 1604 799C 1625 823 1650 826 1668 808z" stroke="none" fill="#FFFFFF" fill-rule="nonzero" />
            <path d="M1736 821C 1726 810 1716 783 1713 759C 1708 723 1710 715 1731 699C 1761 676 1798 675 1828 698C 1848 714 1851 723 1848 775L1848 775L1845 834L1799 837C 1764 839 1749 836 1736 821zM1810 801C 1815 790 1820 763 1820 741L1820 741L1820 700L1780 700L1740 700L1740 741C 1740 791 1755 820 1780 820C 1791 820 1804 811 1810 801z" stroke="none" fill="#FFFFFF" fill-rule="nonzero" />
            <path d="M1930 831C 1930 815 1981 710 1989 710C 1996 710 2050 822 2050 836C 2050 838 2045 840 2040 840C 2034 840 2023 822 2014 800C 2005 778 1995 760 1990 760C 1986 760 1975 778 1965 800C 1949 836 1930 853 1930 831z" stroke="none" fill="#FFFFFF" fill-rule="nonzero" />
            <path d="M2081 814C 2069 799 2060 780 2060 770C 2060 760 2069 741 2081 726C 2108 692 2149 692 2180 725L2180 725L2203 750L2214 727C 2226 704 2261 694 2288 706C 2301 712 2296 715 2270 719C 2235 725 2235 725 2232 783C 2230 814 2225 840 2221 840C 2208 840 2202 817 2206 784C 2208 768 2207 761 2204 768C 2201 775 2178 780 2144 780C 2114 780 2090 784 2090 788C 2090 805 2115 820 2142 820C 2157 820 2170 825 2170 830C 2170 836 2155 840 2136 840C 2111 840 2096 833 2081 814zM2168 748C 2160 726 2131 714 2113 726C 2080 747 2087 760 2130 760C 2158 760 2170 756 2168 748z" stroke="none" fill="#FFFFFF" fill-rule="nonzero" />
            <path d="M2312 774C 2314 727 2319 705 2329 702C 2339 699 2341 704 2336 724C 2328 756 2334 757 2372 725C 2388 711 2406 700 2411 700C 2429 700 2420 718 2390 744L2390 744L2359 769L2392 799C 2410 815 2422 832 2417 836C 2413 840 2397 831 2381 816C 2351 788 2327 788 2332 817C 2334 826 2329 835 2322 837C 2312 841 2310 826 2312 774z" stroke="none" fill="#FFFFFF" fill-rule="nonzero" />
            <path d="M2450 820C 2422 792 2423 736 2452 716C 2483 694 2516 696 2540 720C 2581 761 2552 840 2495 840C 2481 840 2461 831 2450 820zM2524 804C 2533 796 2540 780 2540 770C 2540 750 2515 720 2498 720C 2481 720 2450 751 2450 768C 2450 787 2479 820 2496 820C 2503 820 2516 813 2524 804z" stroke="none" fill="#FFFFFF" fill-rule="nonzero" />
            <path d="M2932 774C 2934 727 2939 705 2949 702C 2959 699 2961 704 2956 724C 2951 743 2953 750 2965 750C 2973 750 2980 746 2980 740C 2980 726 3029 696 3038 705C 3042 709 3030 725 3012 740L3012 740L2978 768L3017 804C 3044 829 3050 840 3038 840C 3029 840 3010 828 2996 814C 2972 787 2947 789 2952 817C 2954 826 2949 835 2942 837C 2932 841 2930 826 2932 774z" stroke="none" fill="#FFFFFF" fill-rule="nonzero" />
            <path d="M3214 815C 3195 796 3191 784 3196 763C 3204 728 3235 700 3266 700C 3295 700 3330 733 3330 760C 3330 777 3323 780 3281 780C 3253 780 3229 784 3225 789C 3218 802 3252 820 3284 820C 3298 820 3310 825 3310 830C 3310 851 3239 840 3214 815zM3305 751C 3308 745 3301 736 3289 729C 3265 716 3214 733 3225 750C 3233 763 3297 763 3305 751z" stroke="none" fill="#FFFFFF" fill-rule="nonzero" />
            <path d="M3348 833C 3346 828 3345 798 3345 766L3345 766L3345 707L3391 703C 3446 698 3460 711 3475 779L3475 779L3486 825L3512 768C 3527 736 3541 710 3544 710C 3551 710 3600 814 3600 828C 3600 849 3582 841 3577 818C 3573 805 3564 786 3557 776C 3543 757 3541 758 3521 798C 3509 821 3496 840 3491 840C 3463 840 3450 825 3450 793C 3450 749 3434 720 3410 720C 3385 720 3370 749 3370 799C 3370 835 3357 854 3348 833z" stroke="none" fill="#FFFFFF" fill-rule="nonzero" />
            <path d="M3625 810C 3634 792 3638 770 3634 755C 3625 719 3645 700 3692 700L3692 700L3731 700L3728 767C 3726 809 3720 835 3713 838C 3704 840 3700 831 3700 810C 3700 785 3696 779 3683 782C 3673 784 3659 798 3652 813C 3645 828 3632 840 3624 840C 3611 840 3612 836 3625 810zM3700 739C 3700 724 3695 719 3678 722C 3644 727 3641 760 3674 760C 3694 760 3700 755 3700 739z" stroke="none" fill="#FFFFFF" fill-rule="nonzero" />
            <path d="M3758 829C 3735 816 3733 716 3754 694C 3770 678 3830 675 3830 690C 3830 696 3837 700 3845 700C 3857 700 3860 714 3860 768L3860 768L3860 836L3818 837C 3794 838 3767 835 3758 829zM3818 808C 3824 801 3830 775 3831 750L3831 750L3835 705L3799 702C 3767 699 3762 702 3756 725C 3745 767 3767 820 3795 820C 3802 820 3812 814 3818 808z" stroke="none" fill="#FFFFFF" fill-rule="nonzero" />
            <path d="M3950 830C 3950 825 3964 820 3980 820C 4012 820 4023 794 3995 784C 3987 780 3980 774 3980 769C 3980 764 3987 760 3995 760C 4003 760 4010 751 4010 740C 4010 724 4003 720 3980 720C 3964 720 3950 716 3950 710C 3950 697 3996 697 4020 710C 4034 717 4038 731 4038 767C 4038 794 4033 821 4027 828C 4016 842 3950 844 3950 830z" stroke="none" fill="#FFFFFF" fill-rule="nonzero" />
            <path d="M4511 814C 4499 799 4490 780 4490 770C 4490 740 4529 700 4559 700C 4596 700 4620 728 4620 772C 4620 838 4551 865 4511 814zM4588 808C 4595 801 4600 784 4600 770C 4600 718 4552 702 4524 745C 4509 768 4509 772 4524 795C 4542 822 4569 827 4588 808z" stroke="none" fill="#FFFFFF" fill-rule="nonzero" />
            <path d="M4636 805C 4632 786 4632 754 4636 734C 4642 700 4644 699 4684 702L4684 702L4725 705L4734 764C 4744 831 4738 840 4679 840C 4645 840 4642 837 4636 805zM4720 800C 4720 784 4713 780 4690 780C 4667 780 4660 784 4660 800C 4660 816 4667 820 4690 820C 4713 820 4720 816 4720 800zM4705 740C 4705 718 4666 721 4662 743C 4659 758 4663 761 4682 758C 4694 756 4705 748 4705 740z" stroke="none" fill="#FFFFFF" fill-rule="nonzero" />
            <path d="M4757 833C 4747 815 4755 707 4768 702C 4776 700 4780 709 4780 729C 4780 755 4784 759 4811 762C 4850 766 4870 792 4854 818C 4842 836 4766 848 4757 833zM4835 800C 4835 791 4824 784 4808 782C 4785 779 4780 783 4780 800C 4780 817 4785 821 4808 818C 4824 816 4835 809 4835 800z" stroke="none" fill="#FFFFFF" fill-rule="nonzero" />
            <path d="M4891 814C 4863 779 4865 749 4894 721C 4925 692 4967 696 4993 732C 5019 767 5008 780 4949 780C 4922 780 4900 784 4900 788C 4900 805 4925 820 4952 820C 4967 820 4980 825 4980 830C 4980 836 4965 840 4946 840C 4921 840 4906 833 4891 814zM4978 748C 4970 726 4941 714 4923 726C 4890 747 4897 760 4940 760C 4968 760 4980 756 4978 748z" stroke="none" fill="#FFFFFF" fill-rule="nonzero" />
            <path d="M2640 770C 2640 765 2658 760 2680 760C 2702 760 2720 765 2720 770C 2720 776 2702 780 2680 780C 2658 780 2640 776 2640 770z" stroke="none" fill="#FFFFFF" fill-rule="nonzero" />
            <path d="M1196 445C 1188 424 1188 37 1196 16C 1201 3 1219 0 1284 0C 1377 0 1417 17 1450 72C 1484 128 1475 185 1423 241L1423 241L1399 267L1445 344C 1493 423 1499 453 1465 458C 1449 460 1433 441 1391 370L1391 370L1338 280L1294 280L1251 280L1248 368C 1245 448 1243 455 1224 458C 1211 460 1200 454 1196 445zM1385 195C 1401 180 1410 159 1410 140C 1410 89 1372 60 1305 60L1305 60L1250 60L1250 140L1250 220L1305 220C 1351 220 1365 216 1385 195z" stroke="none" fill="#FFFFFF" fill-rule="nonzero" />
            <path d="M1645 452C 1572 428 1540 366 1540 250C 1540 157 1547 136 1576 142C 1593 145 1596 158 1600 249C 1605 346 1606 353 1633 376C 1669 407 1711 407 1747 376C 1774 353 1775 346 1780 249C 1784 158 1787 145 1804 142C 1814 140 1826 144 1831 152C 1841 167 1843 420 1834 444C 1827 462 1799 465 1784 450C 1776 442 1765 442 1746 450C 1716 461 1676 462 1645 452z" stroke="none" fill="#FFFFFF" fill-rule="nonzero" />
            <path d="M1886 445C 1878 424 1878 177 1886 156C 1893 138 1921 135 1936 150C 1944 158 1955 158 1974 150C 2046 123 2126 154 2159 223C 2175 257 2180 285 2180 351C 2180 443 2173 464 2144 458C 2127 455 2124 442 2120 351C 2115 254 2114 247 2087 224C 2051 193 2009 193 1973 224C 1946 247 1945 254 1940 352C 1935 448 1933 455 1914 458C 1901 460 1890 454 1886 445z" stroke="none" fill="#FFFFFF" fill-rule="nonzero" />
            <path d="M2285 445C 2239 420 2219 398 2222 376C 2226 351 2260 342 2274 362C 2289 382 2325 400 2350 400C 2383 400 2420 356 2420 317C 2420 276 2397 253 2344 239C 2239 210 2209 98 2288 29C 2319 1 2328 -2 2369 3C 2403 7 2421 16 2442 39C 2472 72 2470 100 2439 100C 2428 100 2412 91 2403 80C 2393 69 2375 60 2363 60C 2335 60 2300 93 2300 118C 2300 142 2341 180 2366 180C 2376 180 2399 189 2417 200C 2525 265 2485 444 2359 457C 2330 459 2305 455 2285 445z" stroke="none" fill="#FFFFFF" fill-rule="nonzero" />
            <path d="M2544 448C 2539 441 2535 376 2534 303C 2531 158 2541 124 2578 147C 2590 154 2602 155 2611 149C 2635 134 2694 139 2728 160C 2760 180 2760 180 2793 160C 2835 134 2879 135 2921 163C 2973 198 2980 221 2978 345C 2975 443 2973 455 2956 458C 2927 464 2920 442 2920 338C 2920 251 2918 239 2898 220C 2870 195 2836 194 2810 220C 2793 237 2790 253 2790 339C 2790 442 2779 470 2745 456C 2733 452 2730 431 2730 350C 2730 256 2728 247 2705 225C 2676 195 2650 193 2619 219C 2597 236 2595 248 2590 346C 2586 437 2582 455 2568 458C 2559 460 2548 455 2544 448z" stroke="none" fill="#FFFFFF" fill-rule="nonzero" />
            <path d="M3120 441C 3016 386 3004 243 3098 172C 3144 137 3233 133 3276 166C 3332 207 3345 235 3349 326C 3353 428 3346 460 3321 460C 3311 460 3300 453 3297 445C 3292 432 3287 432 3256 445C 3208 465 3162 464 3120 441zM3239 386C 3330 339 3289 200 3184 200C 3149 200 3090 259 3090 294C 3090 331 3108 364 3138 383C 3171 403 3203 404 3239 386z" stroke="none" fill="#FFFFFF" fill-rule="nonzero" />
            <path d="M3406 445C 3398 424 3398 177 3406 156C 3414 136 3446 135 3458 155C 3465 169 3469 169 3496 155C 3555 125 3652 144 3637 184C 3632 196 3618 200 3585 200C 3534 200 3486 220 3475 247C 3470 257 3464 308 3461 360C 3455 447 3453 455 3434 458C 3421 460 3410 454 3406 445z" stroke="none" fill="#FFFFFF" fill-rule="nonzero" />
            <path d="M3761 444C 3726 419 3710 369 3710 283C 3710 216 3707 203 3690 192C 3664 176 3665 151 3692 141C 3711 134 3714 127 3712 79C 3709 18 3719 -4 3746 2C 3762 5 3765 16 3768 73C 3771 136 3772 140 3794 140C 3807 140 3823 147 3830 155C 3847 175 3827 200 3794 200C 3771 200 3770 203 3770 278C 3770 361 3786 400 3819 400C 3829 400 3843 407 3850 415C 3881 452 3807 476 3761 444z" stroke="none" fill="#FFFFFF" fill-rule="nonzero" />
		</g>
	</g>
</g>
</svg>