<svg class="img-fluid" id="outputsvg" xmlns="http://www.w3.org/2000/svg" style="transform: none; transform-origin: 50% 50%; cursor: move; max-height: 373.18px;" width="45" height="42" viewBox="0 0 900 840"><g id="lfsTpqoHY7qpxt9lfT7VaD" fill="rgb(255,255,255)" style="transform: none;"><g><path id="p19Y78fG2T" d="M730 695 l-34 -35 -91 0 -91 0 -18 -13 -18 -13 4 -29 3 -28 12 -4 11 -4 4 23 3 23 97 5 98 5 15 23 c9 12 20 22 25 22 l9 0 3 -22 3 -23 28 -3 27 -3 0 -119 0 -119 -47 -3 -48 -3 2 -10 3 -10 59 -3 59 -3 5 23 c3 13 5 79 4 148 l-2 124 -32 10 -33 9 0 33 0 34 -13 0 -13 0 -34 -35z"></path><path id="p1AqjLfw2A" d="M147 713 l-7 -6 0 -73 0 -73 -62 -3 -63 -3 0 -265 0 -265 335 0 335 0 3 268 2 267 -189 0 -190 0 -73 80 c-74 81 -79 85 -91 73z m97 -128 l61 -65 178 0 177 0 0 -230 0 -230 -10 0 c-141 -2 -594 1 -597 4 -3 2 -4 105 -4 228 l0 223 57 5 57 5 7 20 7 20 -5 42 -5 43 8 0 c4 0 35 -29 69 -65z"></path><path id="pUlWzUFzY" d="M170 340 l0 -10 190 0 190 0 0 10 0 10 -190 0 -190 0 0 -10z"></path><path id="peEQ0upeM" d="M170 280 c0 -14 14 -15 200 -12 l180 3 0 10 0 9 -190 0 -190 -1 0 -9z"></path><path id="p1HO4QhUjJ" d="M170 210 l0 -10 190 0 190 0 0 10 0 10 -190 0 -190 0 0 -10z"></path></g></g></svg>