<svg class="img-fluid" id="outputsvg" xmlns="http://www.w3.org/2000/svg" style="transform: none; transform-origin: 50% 50%; cursor: move; max-height: 373.18px;" width="42" height="46" viewBox="0 0 840 920"><g id="l3VE55qRvHqBvauUEEAw1T8" fill="rgb(255,255,255)" style="transform: none;"><g><path id="pdRsaW7fX" d="M289 901 c-215 -70 -338 -308 -269 -520 25 -76 46 -110 100 -167 53 -56 116 -93 194 -114 l61 -17 3 -41 c3 -39 5 -42 32 -42 31 0 43 19 34 56 -4 16 -1 25 7 28 99 27 135 42 188 76 50 33 66 38 77 29 12 -10 12 -15 -3 -31 -16 -18 -16 -20 4 -39 l20 -21 41 44 c46 47 51 62 25 77 -13 7 -23 5 -34 -5 -14 -13 -18 -13 -29 2 -11 12 -11 19 -2 32 7 10 27 46 45 82 30 61 32 71 32 175 0 104 -2 114 -33 177 -42 87 -138 177 -219 208 -79 31 -199 36 -274 11z m284 -56 c77 -38 158 -126 188 -202 31 -80 31 -196 0 -275 -60 -155 -189 -243 -356 -243 -71 0 -88 4 -150 34 -315 155 -281 603 55 712 14 5 66 7 115 6 77 -2 99 -7 148 -32z"></path><path id="pcjie9pem" d="M394 585 c-3 -13 -12 -29 -20 -36 -18 -15 -18 -44 1 -62 11 -12 15 -48 17 -153 3 -116 6 -139 18 -139 12 0 15 23 18 137 2 105 6 139 17 148 17 14 20 66 4 75 -5 4 -14 18 -19 31 -12 31 -28 31 -36 -1z"></path></g></g></svg>